<mxfile host="app.diagrams.net" modified="2024-01-06T03:25:28.411Z" agent="Mozilla/5.0 (Windows NT 10.0; Win64; x64) AppleWebKit/537.36 (KHTML, like Gecko) Chrome/120.0.0.0 Safari/537.36" etag="Bfc67ZyeSraK7pokLryt" version="22.1.17" type="device">
  <diagram name="Page-1" id="Y1A0mzRSxZJWmTEmcVw6">
    <mxGraphModel dx="1161" dy="553" grid="1" gridSize="10" guides="1" tooltips="1" connect="1" arrows="1" fold="1" page="1" pageScale="1" pageWidth="827" pageHeight="1169" math="0" shadow="0">
      <root>
        <mxCell id="0" />
        <mxCell id="1" parent="0" />
        <mxCell id="Qdc1VVaKx9SKGo3h3m0P-1" value="" style="rounded=1;whiteSpace=wrap;html=1;labelBackgroundColor=none;fillColor=#FAE5C7;strokeColor=#0F8B8D;fontColor=#143642;" vertex="1" parent="1">
          <mxGeometry x="30" y="40" width="770" height="60" as="geometry" />
        </mxCell>
        <mxCell id="Qdc1VVaKx9SKGo3h3m0P-2" value="1" style="whiteSpace=wrap;html=1;aspect=fixed;fillColor=#FAE5C7;strokeColor=#0F8B8D;fontStyle=1;labelBackgroundColor=none;fontColor=#143642;rounded=1;" vertex="1" parent="1">
          <mxGeometry x="40" y="53.75" width="32.5" height="32.5" as="geometry" />
        </mxCell>
        <mxCell id="Qdc1VVaKx9SKGo3h3m0P-3" value="2" style="whiteSpace=wrap;html=1;aspect=fixed;fillColor=#FAE5C7;strokeColor=#0F8B8D;fontStyle=1;labelBackgroundColor=none;fontColor=#143642;rounded=1;" vertex="1" parent="1">
          <mxGeometry x="80" y="53.75" width="32.5" height="32.5" as="geometry" />
        </mxCell>
        <mxCell id="Qdc1VVaKx9SKGo3h3m0P-4" value="3" style="whiteSpace=wrap;html=1;aspect=fixed;fillColor=#FAE5C7;strokeColor=#0F8B8D;fontStyle=1;labelBackgroundColor=none;fontColor=#143642;rounded=1;" vertex="1" parent="1">
          <mxGeometry x="120" y="53.75" width="32.5" height="32.5" as="geometry" />
        </mxCell>
        <mxCell id="Qdc1VVaKx9SKGo3h3m0P-5" value="4" style="whiteSpace=wrap;html=1;aspect=fixed;fillColor=#FAE5C7;strokeColor=#0F8B8D;fontStyle=1;labelBackgroundColor=none;fontColor=#143642;rounded=1;" vertex="1" parent="1">
          <mxGeometry x="160" y="53.75" width="32.5" height="32.5" as="geometry" />
        </mxCell>
        <mxCell id="Qdc1VVaKx9SKGo3h3m0P-6" value="5" style="whiteSpace=wrap;html=1;aspect=fixed;fillColor=#FAE5C7;strokeColor=#0F8B8D;fontStyle=1;labelBackgroundColor=none;fontColor=#143642;rounded=1;" vertex="1" parent="1">
          <mxGeometry x="200" y="53.75" width="32.5" height="32.5" as="geometry" />
        </mxCell>
        <mxCell id="Qdc1VVaKx9SKGo3h3m0P-7" value="6" style="whiteSpace=wrap;html=1;aspect=fixed;fillColor=#FAE5C7;strokeColor=#0F8B8D;fontStyle=1;labelBackgroundColor=none;fontColor=#143642;rounded=1;" vertex="1" parent="1">
          <mxGeometry x="240" y="53.75" width="32.5" height="32.5" as="geometry" />
        </mxCell>
        <mxCell id="Qdc1VVaKx9SKGo3h3m0P-8" value="7" style="whiteSpace=wrap;html=1;aspect=fixed;fillColor=#FAE5C7;strokeColor=#0F8B8D;fontStyle=1;labelBackgroundColor=none;fontColor=#143642;rounded=1;" vertex="1" parent="1">
          <mxGeometry x="280" y="53.75" width="32.5" height="32.5" as="geometry" />
        </mxCell>
        <mxCell id="Qdc1VVaKx9SKGo3h3m0P-9" value="8" style="whiteSpace=wrap;html=1;aspect=fixed;fillColor=#FAE5C7;strokeColor=#0F8B8D;fontStyle=1;labelBackgroundColor=none;fontColor=#143642;rounded=1;" vertex="1" parent="1">
          <mxGeometry x="320" y="53.75" width="32.5" height="32.5" as="geometry" />
        </mxCell>
        <mxCell id="Qdc1VVaKx9SKGo3h3m0P-14" value="" style="endArrow=classic;html=1;rounded=1;entryX=0.85;entryY=0.272;entryDx=0;entryDy=0;entryPerimeter=0;labelBackgroundColor=none;strokeColor=#A8201A;fontColor=default;" edge="1" parent="1">
          <mxGeometry width="50" height="50" relative="1" as="geometry">
            <mxPoint x="730" y="100" as="sourcePoint" />
            <mxPoint x="690.5" y="139.03999999999996" as="targetPoint" />
          </mxGeometry>
        </mxCell>
        <mxCell id="Qdc1VVaKx9SKGo3h3m0P-19" value="" style="endArrow=classic;html=1;rounded=1;entryX=0.606;entryY=0.172;entryDx=0;entryDy=0;entryPerimeter=0;labelBackgroundColor=none;strokeColor=#A8201A;fontColor=default;" edge="1" parent="1" source="Qdc1VVaKx9SKGo3h3m0P-8">
          <mxGeometry width="50" height="50" relative="1" as="geometry">
            <mxPoint x="390" y="130" as="sourcePoint" />
            <mxPoint x="221.80000000000018" y="132.03999999999996" as="targetPoint" />
          </mxGeometry>
        </mxCell>
        <mxCell id="Qdc1VVaKx9SKGo3h3m0P-21" value="" style="rounded=1;whiteSpace=wrap;html=1;labelBackgroundColor=none;fillColor=#FAE5C7;strokeColor=#0F8B8D;fontColor=#143642;" vertex="1" parent="1">
          <mxGeometry x="30" y="460" width="770" height="110" as="geometry" />
        </mxCell>
        <mxCell id="Qdc1VVaKx9SKGo3h3m0P-22" value="1" style="whiteSpace=wrap;html=1;aspect=fixed;fillColor=#FAE5C7;strokeColor=#0F8B8D;fontStyle=1;labelBackgroundColor=none;fontColor=#143642;rounded=1;" vertex="1" parent="1">
          <mxGeometry x="250" y="480" width="32.5" height="32.5" as="geometry" />
        </mxCell>
        <mxCell id="Qdc1VVaKx9SKGo3h3m0P-23" value="2" style="whiteSpace=wrap;html=1;aspect=fixed;fillColor=#FAE5C7;strokeColor=#0F8B8D;fontStyle=1;labelBackgroundColor=none;fontColor=#143642;rounded=1;" vertex="1" parent="1">
          <mxGeometry x="290" y="480" width="32.5" height="32.5" as="geometry" />
        </mxCell>
        <mxCell id="Qdc1VVaKx9SKGo3h3m0P-24" value="3" style="whiteSpace=wrap;html=1;aspect=fixed;fillColor=#FAE5C7;strokeColor=#0F8B8D;fontStyle=1;labelBackgroundColor=none;fontColor=#143642;rounded=1;" vertex="1" parent="1">
          <mxGeometry x="330" y="480" width="32.5" height="32.5" as="geometry" />
        </mxCell>
        <mxCell id="Qdc1VVaKx9SKGo3h3m0P-25" value="4" style="whiteSpace=wrap;html=1;aspect=fixed;fillColor=#FAE5C7;strokeColor=#0F8B8D;fontStyle=1;labelBackgroundColor=none;fontColor=#143642;rounded=1;" vertex="1" parent="1">
          <mxGeometry x="370" y="480" width="32.5" height="32.5" as="geometry" />
        </mxCell>
        <mxCell id="Qdc1VVaKx9SKGo3h3m0P-26" value="5" style="whiteSpace=wrap;html=1;aspect=fixed;fillColor=#FAE5C7;strokeColor=#0F8B8D;fontStyle=1;labelBackgroundColor=none;fontColor=#143642;rounded=1;" vertex="1" parent="1">
          <mxGeometry x="410" y="480" width="32.5" height="32.5" as="geometry" />
        </mxCell>
        <mxCell id="Qdc1VVaKx9SKGo3h3m0P-27" value="6" style="whiteSpace=wrap;html=1;aspect=fixed;fillColor=#FAE5C7;strokeColor=#0F8B8D;fontStyle=1;labelBackgroundColor=none;fontColor=#143642;rounded=1;" vertex="1" parent="1">
          <mxGeometry x="450" y="480" width="32.5" height="32.5" as="geometry" />
        </mxCell>
        <mxCell id="Qdc1VVaKx9SKGo3h3m0P-28" value="7" style="whiteSpace=wrap;html=1;aspect=fixed;fillColor=#FAE5C7;strokeColor=#0F8B8D;fontStyle=1;labelBackgroundColor=none;fontColor=#143642;rounded=1;" vertex="1" parent="1">
          <mxGeometry x="490" y="480" width="32.5" height="32.5" as="geometry" />
        </mxCell>
        <mxCell id="Qdc1VVaKx9SKGo3h3m0P-29" value="8" style="whiteSpace=wrap;html=1;aspect=fixed;fillColor=#FAE5C7;strokeColor=#0F8B8D;fontStyle=1;labelBackgroundColor=none;fontColor=#143642;rounded=1;" vertex="1" parent="1">
          <mxGeometry x="532.5" y="480" width="32.5" height="32.5" as="geometry" />
        </mxCell>
        <mxCell id="Qdc1VVaKx9SKGo3h3m0P-30" value="flex-direction:row and justify-content:center" style="text;html=1;strokeColor=none;fillColor=none;align=center;verticalAlign=middle;whiteSpace=wrap;rounded=0;fontColor=#143642;fontStyle=1" vertex="1" parent="1">
          <mxGeometry x="380" y="570" width="390" height="30" as="geometry" />
        </mxCell>
        <mxCell id="Qdc1VVaKx9SKGo3h3m0P-31" value="These are 8 items which need to be align properly" style="text;html=1;strokeColor=none;fillColor=none;align=center;verticalAlign=middle;whiteSpace=wrap;rounded=0;fontColor=#143642;fontStyle=1" vertex="1" parent="1">
          <mxGeometry x="30" y="130" width="350" height="30" as="geometry" />
        </mxCell>
        <mxCell id="Qdc1VVaKx9SKGo3h3m0P-32" value="It is main container that&amp;nbsp; have many items inside&lt;br style=&quot;border-color: var(--border-color);&quot;&gt;&lt;span style=&quot;&quot;&gt;it&lt;/span&gt;" style="text;html=1;strokeColor=none;fillColor=none;align=center;verticalAlign=middle;whiteSpace=wrap;rounded=0;fontColor=#143642;fontStyle=1" vertex="1" parent="1">
          <mxGeometry x="420" y="140" width="290" height="30" as="geometry" />
        </mxCell>
        <mxCell id="Qdc1VVaKx9SKGo3h3m0P-34" value="Note:- Most of the flex property we wil use inside main container class&lt;br&gt;&lt;div style=&quot;&quot;&gt;&lt;span style=&quot;background-color: initial;&quot;&gt;display:flex;&lt;/span&gt;&lt;br&gt;&lt;span style=&quot;background-color: initial;&quot;&gt;flex-direction:row&lt;/span&gt;&lt;br&gt;&lt;span style=&quot;background-color: initial;&quot;&gt;justify-content:center;&lt;/span&gt;&lt;br&gt;&lt;span style=&quot;background-color: initial;&quot;&gt;align-item:center&lt;/span&gt;&lt;br&gt;&lt;/div&gt;" style="ellipse;whiteSpace=wrap;html=1;rounded=1;fontStyle=1" vertex="1" parent="1">
          <mxGeometry x="100" y="200" width="560" height="100" as="geometry" />
        </mxCell>
        <mxCell id="Qdc1VVaKx9SKGo3h3m0P-35" value="&lt;font style=&quot;font-size: 18px;&quot;&gt;Case 1:- flex-direction:row | row-reverse&lt;/font&gt;" style="text;html=1;strokeColor=none;fillColor=none;align=center;verticalAlign=middle;whiteSpace=wrap;rounded=0;fontColor=#143642;fontStyle=1" vertex="1" parent="1">
          <mxGeometry x="40" y="380" width="370" height="30" as="geometry" />
        </mxCell>
        <mxCell id="Qdc1VVaKx9SKGo3h3m0P-36" value="" style="endArrow=classic;html=1;rounded=1;strokeColor=#A8201A;fontColor=#143642;fillColor=#FAE5C7;" edge="1" parent="1">
          <mxGeometry width="50" height="50" relative="1" as="geometry">
            <mxPoint x="630" y="440" as="sourcePoint" />
            <mxPoint x="730" y="440" as="targetPoint" />
          </mxGeometry>
        </mxCell>
        <mxCell id="Qdc1VVaKx9SKGo3h3m0P-38" value="Main-Axis" style="text;html=1;strokeColor=none;fillColor=none;align=center;verticalAlign=middle;whiteSpace=wrap;rounded=0;fontColor=#143642;fontStyle=1" vertex="1" parent="1">
          <mxGeometry x="730" y="420" width="60" height="30" as="geometry" />
        </mxCell>
        <mxCell id="Qdc1VVaKx9SKGo3h3m0P-39" value="" style="endArrow=classic;html=1;rounded=1;strokeColor=#A8201A;fontColor=#143642;fillColor=#FAE5C7;" edge="1" parent="1">
          <mxGeometry width="50" height="50" relative="1" as="geometry">
            <mxPoint x="20" y="480" as="sourcePoint" />
            <mxPoint x="20" y="600" as="targetPoint" />
            <Array as="points" />
          </mxGeometry>
        </mxCell>
        <mxCell id="Qdc1VVaKx9SKGo3h3m0P-40" value="Cross-Axis" style="text;html=1;strokeColor=none;fillColor=none;align=center;verticalAlign=middle;whiteSpace=wrap;rounded=0;fontColor=#143642;fontStyle=1" vertex="1" parent="1">
          <mxGeometry x="28" y="570" width="80" height="30" as="geometry" />
        </mxCell>
        <mxCell id="Qdc1VVaKx9SKGo3h3m0P-42" value="" style="rounded=1;whiteSpace=wrap;html=1;labelBackgroundColor=none;fillColor=#FAE5C7;strokeColor=#0F8B8D;fontColor=#143642;" vertex="1" parent="1">
          <mxGeometry x="28" y="720" width="770" height="110" as="geometry" />
        </mxCell>
        <mxCell id="Qdc1VVaKx9SKGo3h3m0P-43" value="1" style="whiteSpace=wrap;html=1;aspect=fixed;fillColor=#FAE5C7;strokeColor=#0F8B8D;fontStyle=1;labelBackgroundColor=none;fontColor=#143642;rounded=1;" vertex="1" parent="1">
          <mxGeometry x="258" y="760" width="32.5" height="32.5" as="geometry" />
        </mxCell>
        <mxCell id="Qdc1VVaKx9SKGo3h3m0P-44" value="2" style="whiteSpace=wrap;html=1;aspect=fixed;fillColor=#FAE5C7;strokeColor=#0F8B8D;fontStyle=1;labelBackgroundColor=none;fontColor=#143642;rounded=1;" vertex="1" parent="1">
          <mxGeometry x="298" y="760" width="32.5" height="32.5" as="geometry" />
        </mxCell>
        <mxCell id="Qdc1VVaKx9SKGo3h3m0P-45" value="3" style="whiteSpace=wrap;html=1;aspect=fixed;fillColor=#FAE5C7;strokeColor=#0F8B8D;fontStyle=1;labelBackgroundColor=none;fontColor=#143642;rounded=1;" vertex="1" parent="1">
          <mxGeometry x="338" y="760" width="32.5" height="32.5" as="geometry" />
        </mxCell>
        <mxCell id="Qdc1VVaKx9SKGo3h3m0P-46" value="4" style="whiteSpace=wrap;html=1;aspect=fixed;fillColor=#FAE5C7;strokeColor=#0F8B8D;fontStyle=1;labelBackgroundColor=none;fontColor=#143642;rounded=1;" vertex="1" parent="1">
          <mxGeometry x="378" y="760" width="32.5" height="32.5" as="geometry" />
        </mxCell>
        <mxCell id="Qdc1VVaKx9SKGo3h3m0P-47" value="5" style="whiteSpace=wrap;html=1;aspect=fixed;fillColor=#FAE5C7;strokeColor=#0F8B8D;fontStyle=1;labelBackgroundColor=none;fontColor=#143642;rounded=1;" vertex="1" parent="1">
          <mxGeometry x="418" y="760" width="32.5" height="32.5" as="geometry" />
        </mxCell>
        <mxCell id="Qdc1VVaKx9SKGo3h3m0P-48" value="6" style="whiteSpace=wrap;html=1;aspect=fixed;fillColor=#FAE5C7;strokeColor=#0F8B8D;fontStyle=1;labelBackgroundColor=none;fontColor=#143642;rounded=1;" vertex="1" parent="1">
          <mxGeometry x="458" y="760" width="32.5" height="32.5" as="geometry" />
        </mxCell>
        <mxCell id="Qdc1VVaKx9SKGo3h3m0P-49" value="7" style="whiteSpace=wrap;html=1;aspect=fixed;fillColor=#FAE5C7;strokeColor=#0F8B8D;fontStyle=1;labelBackgroundColor=none;fontColor=#143642;rounded=1;" vertex="1" parent="1">
          <mxGeometry x="498" y="760" width="32.5" height="32.5" as="geometry" />
        </mxCell>
        <mxCell id="Qdc1VVaKx9SKGo3h3m0P-50" value="8" style="whiteSpace=wrap;html=1;aspect=fixed;fillColor=#FAE5C7;strokeColor=#0F8B8D;fontStyle=1;labelBackgroundColor=none;fontColor=#143642;rounded=1;" vertex="1" parent="1">
          <mxGeometry x="540.5" y="760" width="32.5" height="32.5" as="geometry" />
        </mxCell>
        <mxCell id="Qdc1VVaKx9SKGo3h3m0P-51" value="" style="endArrow=classic;html=1;rounded=1;strokeColor=#A8201A;fontColor=#143642;fillColor=#FAE5C7;" edge="1" parent="1">
          <mxGeometry width="50" height="50" relative="1" as="geometry">
            <mxPoint x="28" y="760" as="sourcePoint" />
            <mxPoint x="30" y="880" as="targetPoint" />
            <Array as="points" />
          </mxGeometry>
        </mxCell>
        <mxCell id="Qdc1VVaKx9SKGo3h3m0P-52" value="Cross-Axis" style="text;html=1;strokeColor=none;fillColor=none;align=center;verticalAlign=middle;whiteSpace=wrap;rounded=0;fontColor=#143642;fontStyle=1" vertex="1" parent="1">
          <mxGeometry x="40" y="840" width="80" height="30" as="geometry" />
        </mxCell>
        <mxCell id="Qdc1VVaKx9SKGo3h3m0P-53" value="" style="endArrow=classic;html=1;rounded=1;strokeColor=#A8201A;fontColor=#143642;fillColor=#FAE5C7;" edge="1" parent="1">
          <mxGeometry width="50" height="50" relative="1" as="geometry">
            <mxPoint x="600" y="700" as="sourcePoint" />
            <mxPoint x="750" y="700" as="targetPoint" />
          </mxGeometry>
        </mxCell>
        <mxCell id="Qdc1VVaKx9SKGo3h3m0P-54" value="Main-Axis" style="text;html=1;strokeColor=none;fillColor=none;align=center;verticalAlign=middle;whiteSpace=wrap;rounded=0;fontColor=#143642;fontStyle=1" vertex="1" parent="1">
          <mxGeometry x="750" y="680" width="60" height="30" as="geometry" />
        </mxCell>
        <mxCell id="Qdc1VVaKx9SKGo3h3m0P-55" value="flex-direction:row and justify-content:center and align-item:center" style="text;html=1;strokeColor=none;fillColor=none;align=center;verticalAlign=middle;whiteSpace=wrap;rounded=0;fontColor=#143642;fontStyle=1" vertex="1" parent="1">
          <mxGeometry x="321.75" y="830" width="470" height="30" as="geometry" />
        </mxCell>
      </root>
    </mxGraphModel>
  </diagram>
</mxfile>
